<svg id="eFiVmoxNchQ1" xmlns="http://www.w3.org/2000/svg" xmlns:xlink="http://www.w3.org/1999/xlink" viewBox="0 0 640 480" shape-rendering="geometricPrecision" text-rendering="geometricPrecision"><g transform="translate(-11.493866-49.712988)"><ellipse rx="5.746933" ry="5.746933" transform="translate(325.746933 326.76861)" fill="#52baff" stroke-width="0"/><ellipse rx="5.746933" ry="5.746933" transform="translate(325.746933 223.516396)" fill="#52baff" stroke-width="0"/><rect width="11.493866" height="103.252214" rx="0" ry="0" transform="translate(320 223.516396)" fill="#52baff" stroke-width="0"/></g><g transform="translate(53.168403 14.570487)"><ellipse rx="5.746933" ry="5.746933" transform="translate(325.746933 326.76861)" fill="#52baff" stroke-width="0"/><ellipse rx="5.746933" ry="5.746933" transform="translate(325.746933 223.516396)" fill="#52baff" stroke-width="0"/><rect width="11.493866" height="103.252214" rx="0" ry="0" transform="translate(320 223.516396)" fill="#52baff" stroke-width="0"/></g><g transform="translate(52.267243-134.560903)"><ellipse rx="5.746933" ry="5.746933" transform="translate(325.746933 326.76861)" fill="#52baff" stroke-width="0"/><ellipse rx="5.746933" ry="5.746933" transform="translate(325.746933 223.516396)" fill="#52baff" stroke-width="0"/><rect width="11.493866" height="103.252214" rx="0" ry="0" transform="translate(320 223.516396)" fill="#52baff" stroke-width="0"/></g><g transform="translate(-73.895068-128.813977)"><ellipse rx="5.746933" ry="5.746933" transform="translate(325.746933 326.76861)" fill="#52baff" stroke-width="0"/><ellipse rx="5.746933" ry="5.746933" transform="translate(325.746933 223.516396)" fill="#52baff" stroke-width="0"/><rect width="11.493866" height="103.252214" rx="0" ry="0" transform="translate(320 223.516396)" fill="#52baff" stroke-width="0"/></g><g transform="translate(-73.895068 60.449662)"><ellipse rx="5.746933" ry="5.746933" transform="translate(325.746933 326.76861)" fill="#52baff" stroke-width="0"/><ellipse rx="5.746933" ry="5.746933" transform="translate(325.746933 223.516396)" fill="#52baff" stroke-width="0"/><rect width="11.493866" height="103.252214" rx="0" ry="0" transform="translate(320 223.516396)" fill="#52baff" stroke-width="0"/></g><g transform="translate(110.842601 71.943529)"><ellipse rx="5.746933" ry="5.746933" transform="translate(325.746933 326.76861)" fill="#52baff" stroke-width="0"/><ellipse rx="5.746933" ry="5.746933" transform="translate(325.746933 223.516396)" fill="#52baff" stroke-width="0"/><rect width="11.493866" height="103.252214" rx="0" ry="0" transform="translate(320 223.516396)" fill="#52baff" stroke-width="0"/></g><g transform="translate(110.842601-88.681717)"><ellipse rx="5.746933" ry="5.746933" transform="translate(325.746933 326.76861)" fill="#52baff" stroke-width="0"/><ellipse rx="5.746933" ry="5.746933" transform="translate(325.746933 223.516396)" fill="#52baff" stroke-width="0"/><rect width="11.493866" height="103.252214" rx="0" ry="0" transform="translate(320 223.516396)" fill="#52baff" stroke-width="0"/></g><g transform="translate(-11.493866 88.427125)"><ellipse rx="5.746933" ry="5.746933" transform="translate(325.746933 326.76861)" fill="#52baff" stroke-width="0"/><ellipse rx="5.746933" ry="5.746933" transform="translate(325.746933 223.516396)" fill="#52baff" stroke-width="0"/><rect width="11.493866" height="103.252214" rx="0" ry="0" transform="translate(320 223.516396)" fill="#52baff" stroke-width="0"/></g><g transform="translate(-137.877382-158.712128)"><ellipse rx="5.746933" ry="5.746933" transform="translate(325.746933 326.76861)" fill="#52baff" stroke-width="0"/><ellipse rx="5.746933" ry="5.746933" transform="translate(325.746933 223.516396)" fill="#52baff" stroke-width="0"/><rect width="11.493866" height="103.252214" rx="0" ry="0" transform="translate(320 223.516396)" fill="#52baff" stroke-width="0"/></g><g transform="translate(-137.877382 20.317413)"><ellipse rx="5.746933" ry="5.746933" transform="translate(325.746933 326.76861)" fill="#52baff" stroke-width="0"/><ellipse rx="5.746933" ry="5.746933" transform="translate(325.746933 223.516396)" fill="#52baff" stroke-width="0"/><rect width="11.493866" height="103.252214" rx="0" ry="0" transform="translate(320 223.516396)" fill="#52baff" stroke-width="0"/></g></svg>